<svg xmlns="http://www.w3.org/2000/svg" width="880" height="560" viewBox="0 0 880 560" font-family='system-ui, -apple-system, "Segoe UI", sans-serif'><rect width="880" height="560" fill="#fcfcfb"/>
<text x="28.0" y="40.0" font-size="19" fill="#0b0b0b" text-anchor="start" font-weight="600" style="font-variant-numeric: tabular-nums">Half the store has exactly one user a month. The top 1% has 78% of them.</text>
<text x="28.0" y="60.0" font-size="12" fill="#52514e" text-anchor="start" font-weight="normal" style="font-variant-numeric: tabular-nums">Cumulative share of 30-day users against cumulative share of actors, poorest first. 53,937 actors, one capture.</text>
<text x="28.0" y="88.0" font-size="8.5" fill="#8a8880" text-anchor="start" font-weight="700" letter-spacing="0.9" style="font-variant-numeric: tabular-nums">FOR</text>
<text x="28.0" y="103.0" font-size="11.5" fill="#52514e" text-anchor="start" font-weight="normal" style="font-variant-numeric: tabular-nums">Anyone about to average this data, size the</text>
<text x="28.0" y="116.5" font-size="11.5" fill="#52514e" text-anchor="start" font-weight="normal" style="font-variant-numeric: tabular-nums">market, or pick a typical actor</text>
<text x="302.7" y="88.0" font-size="8.5" fill="#8a8880" text-anchor="start" font-weight="700" letter-spacing="0.9" style="font-variant-numeric: tabular-nums">DECIDE</text>
<text x="302.7" y="103.0" font-size="11.5" fill="#52514e" text-anchor="start" font-weight="normal" style="font-variant-numeric: tabular-nums">Whether "an actor" is a unit that means</text>
<text x="302.7" y="116.5" font-size="11.5" fill="#52514e" text-anchor="start" font-weight="normal" style="font-variant-numeric: tabular-nums">anything here</text>
<text x="577.3" y="88.0" font-size="8.5" fill="#8a8880" text-anchor="start" font-weight="700" letter-spacing="0.9" style="font-variant-numeric: tabular-nums">WRONG IF</text>
<text x="577.3" y="103.0" font-size="11.5" fill="#8a8880" text-anchor="start" font-weight="normal" style="font-variant-numeric: tabular-nums">The curve sits near the diagonal, which would</text>
<text x="577.3" y="116.5" font-size="11.5" fill="#8a8880" text-anchor="start" font-weight="normal" style="font-variant-numeric: tabular-nums">make a mean informative</text>
<line x1="28" y1="126.0" x2="852" y2="126.0" stroke="#e3e2db"/>
<line x1="88" y1="464.0" x2="560" y2="464.0" stroke="#f0efe9"/>
<text x="79.0" y="467.5" font-size="10" fill="#8a8880" text-anchor="end" font-weight="normal" style="font-variant-numeric: tabular-nums">0</text>
<text x="88.0" y="481.0" font-size="10" fill="#8a8880" text-anchor="middle" font-weight="normal" style="font-variant-numeric: tabular-nums">0</text>
<line x1="88" y1="389.5" x2="560" y2="389.5" stroke="#f0efe9"/>
<text x="79.0" y="393.0" font-size="10" fill="#8a8880" text-anchor="end" font-weight="normal" style="font-variant-numeric: tabular-nums">25</text>
<text x="206.0" y="481.0" font-size="10" fill="#8a8880" text-anchor="middle" font-weight="normal" style="font-variant-numeric: tabular-nums">25</text>
<line x1="88" y1="315.0" x2="560" y2="315.0" stroke="#f0efe9"/>
<text x="79.0" y="318.5" font-size="10" fill="#8a8880" text-anchor="end" font-weight="normal" style="font-variant-numeric: tabular-nums">50</text>
<text x="324.0" y="481.0" font-size="10" fill="#8a8880" text-anchor="middle" font-weight="normal" style="font-variant-numeric: tabular-nums">50</text>
<line x1="88" y1="240.5" x2="560" y2="240.5" stroke="#f0efe9"/>
<text x="79.0" y="244.0" font-size="10" fill="#8a8880" text-anchor="end" font-weight="normal" style="font-variant-numeric: tabular-nums">75</text>
<text x="442.0" y="481.0" font-size="10" fill="#8a8880" text-anchor="middle" font-weight="normal" style="font-variant-numeric: tabular-nums">75</text>
<line x1="88" y1="166.0" x2="560" y2="166.0" stroke="#f0efe9"/>
<text x="79.0" y="169.5" font-size="10" fill="#8a8880" text-anchor="end" font-weight="normal" style="font-variant-numeric: tabular-nums">100</text>
<text x="560.0" y="481.0" font-size="10" fill="#8a8880" text-anchor="middle" font-weight="normal" style="font-variant-numeric: tabular-nums">100</text>
<text x="79.0" y="152.0" font-size="10" fill="#8a8880" text-anchor="end" font-weight="normal" style="font-variant-numeric: tabular-nums">% of users</text>
<text x="324.0" y="500.0" font-size="10.5" fill="#8a8880" text-anchor="middle" font-weight="normal" style="font-variant-numeric: tabular-nums">% of actors, least-used first</text>
<line x1="88" y1="464" x2="560" y2="166.0" stroke="#aca89a" stroke-width="1.4" stroke-dasharray="5 4"/>
<text x="184.0" y="386.0" fill="none" stroke="#fcfcfb" stroke-width="3.4" stroke-linejoin="round" font-size="10.5" text-anchor="start" font-weight="600" style="font-variant-numeric: tabular-nums">equal shares</text>
<text x="184.0" y="386.0" fill="#8a8880" font-size="10.5" text-anchor="start" font-weight="600" style="font-variant-numeric: tabular-nums">equal shares</text>
<polyline points="90.4,464.0 92.7,464.0 95.1,464.0 97.4,464.0 99.8,464.0 102.1,464.0 104.5,464.0 106.8,464.0 109.2,464.0 111.5,464.0 113.9,464.0 116.2,464.0 118.6,464.0 121.0,464.0 123.3,464.0 125.7,464.0 128.0,464.0 130.4,464.0 132.7,464.0 135.1,464.0 137.4,464.0 139.8,464.0 142.1,464.0 144.5,464.0 146.8,464.0 149.2,464.0 151.6,464.0 153.9,464.0 156.3,464.0 158.6,464.0 161.0,464.0 163.3,464.0 165.7,464.0 168.0,464.0 170.4,464.0 172.7,464.0 175.1,464.0 177.5,464.0 179.8,464.0 182.2,463.9 184.5,463.8 186.9,463.7 189.2,463.6 191.6,463.6 193.9,463.5 196.3,463.4 198.6,463.3 201.0,463.2 203.3,463.1 205.7,463.0 208.1,462.9 210.4,462.8 212.8,462.7 215.1,462.6 217.5,462.5 219.8,462.4 222.2,462.3 224.5,462.2 226.9,462.2 229.2,462.1 231.6,462.0 233.9,461.9 236.3,461.8 238.7,461.7 241.0,461.6 243.4,461.5 245.7,461.4 248.1,461.3 250.4,461.2 252.8,461.1 255.1,461.0 257.5,460.9 259.8,460.9 262.2,460.8 264.6,460.7 266.9,460.6 269.3,460.5 271.6,460.4 274.0,460.3 276.3,460.2 278.7,460.1 281.0,460.0 283.4,459.9 285.7,459.8 288.1,459.7 290.4,459.6 292.8,459.5 295.2,459.4 297.5,459.4 299.9,459.3 302.2,459.2 304.6,459.1 306.9,459.0 309.3,458.9 311.6,458.8 314.0,458.7 316.3,458.6 318.7,458.5 321.0,458.4 323.4,458.3 325.8,458.2 328.1,458.1 330.5,458.1 332.8,458.0 335.2,457.9 337.5,457.8 339.9,457.7 342.2,457.6 344.6,457.5 346.9,457.4 349.3,457.3 351.6,457.2 354.0,457.1 356.4,457.0 358.7,456.9 361.1,456.8 363.4,456.7 365.8,456.7 368.1,456.6 370.5,456.5 372.8,456.4 375.2,456.3 377.5,456.2 379.9,456.1 382.2,456.0 384.6,455.9 387.0,455.8 389.3,455.7 391.7,455.6 394.0,455.5 396.4,455.4 398.7,455.3 401.1,455.3 403.4,455.2 405.8,455.1 408.1,455.0 410.5,454.9 412.9,454.8 415.2,454.7 417.6,454.6 419.9,454.5 422.3,454.3 424.6,454.2 427.0,454.0 429.3,453.8 431.7,453.6 434.0,453.4 436.4,453.2 438.7,453.0 441.1,452.8 443.5,452.7 445.8,452.5 448.2,452.3 450.5,452.1 452.9,451.9 455.2,451.7 457.6,451.5 459.9,451.4 462.3,451.2 464.6,451.0 467.0,450.8 469.3,450.5 471.7,450.2 474.1,449.9 476.4,449.6 478.8,449.4 481.1,449.1 483.5,448.8 485.8,448.4 488.2,448.1 490.5,447.7 492.9,447.3 495.2,446.9 497.6,446.5 500.0,446.0 502.3,445.6 504.7,445.0 507.0,444.5 509.4,443.9 511.7,443.3 514.1,442.6 516.4,441.9 518.8,441.1 521.1,440.3 523.5,439.4 525.8,438.4 528.2,437.3 530.6,436.0 532.9,434.7 535.3,433.2 537.6,431.4 540.0,429.5 542.3,427.2 544.7,424.5 547.0,421.3 549.4,417.2 551.7,411.8 554.1,404.3 556.4,391.8 558.8,360.8 560.0,166.0" fill="none" stroke="#2f6f5e" stroke-width="2.4"/>
<line x1="555.3" y1="166.0" x2="555.3" y2="464" stroke="#b4472e" stroke-width="1.6" stroke-dasharray="3 3"/>
<text x="547.3" y="182.0" fill="none" stroke="#fcfcfb" stroke-width="3.4" stroke-linejoin="round" font-size="11.5" text-anchor="end" font-weight="600" style="font-variant-numeric: tabular-nums">top 1% — 78% of all users</text>
<text x="547.3" y="182.0" fill="#b4472e" font-size="11.5" text-anchor="end" font-weight="600" style="font-variant-numeric: tabular-nums">top 1% — 78% of all users</text>
<text x="618.0" y="164.0" font-size="10.5" fill="#8a8880" text-anchor="start" font-weight="normal" style="font-variant-numeric: tabular-nums">actors by 30-day users</text>
<rect x="652" y="180.0" width="62.3" height="35.3" rx="2.5" fill="#b4472e" fill-opacity="0.85"/>
<text x="646.0" y="200.1" font-size="10.5" fill="#52514e" text-anchor="end" font-weight="normal" style="font-variant-numeric: tabular-nums">0</text>
<text x="720.3" y="200.1" fill="none" stroke="#fcfcfb" stroke-width="3.4" stroke-linejoin="round" font-size="10" text-anchor="start" font-weight="600" style="font-variant-numeric: tabular-nums">10,549</text>
<text x="720.3" y="200.1" fill="#52514e" font-size="10" text-anchor="start" font-weight="600" style="font-variant-numeric: tabular-nums">10,549</text>
<rect x="652" y="220.3" width="162.0" height="35.3" rx="2.5" fill="#b4472e" fill-opacity="0.85"/>
<text x="646.0" y="240.4" font-size="10.5" fill="#52514e" text-anchor="end" font-weight="normal" style="font-variant-numeric: tabular-nums">1</text>
<text x="820.0" y="240.4" fill="none" stroke="#fcfcfb" stroke-width="3.4" stroke-linejoin="round" font-size="10" text-anchor="start" font-weight="600" style="font-variant-numeric: tabular-nums">27,433</text>
<text x="820.0" y="240.4" fill="#52514e" font-size="10" text-anchor="start" font-weight="600" style="font-variant-numeric: tabular-nums">27,433</text>
<rect x="652" y="260.6" width="50.6" height="35.3" rx="2.5" fill="#2f6f5e" fill-opacity="0.8"/>
<text x="646.0" y="280.7" font-size="10.5" fill="#52514e" text-anchor="end" font-weight="normal" style="font-variant-numeric: tabular-nums">2-4</text>
<text x="708.6" y="280.7" fill="none" stroke="#fcfcfb" stroke-width="3.4" stroke-linejoin="round" font-size="10" text-anchor="start" font-weight="600" style="font-variant-numeric: tabular-nums">8,567</text>
<text x="708.6" y="280.7" fill="#52514e" font-size="10" text-anchor="start" font-weight="600" style="font-variant-numeric: tabular-nums">8,567</text>
<rect x="652" y="300.9" width="17.6" height="35.3" rx="2.5" fill="#2f6f5e" fill-opacity="0.8"/>
<text x="646.0" y="321.0" font-size="10.5" fill="#52514e" text-anchor="end" font-weight="normal" style="font-variant-numeric: tabular-nums">5-9</text>
<text x="675.6" y="321.0" fill="none" stroke="#fcfcfb" stroke-width="3.4" stroke-linejoin="round" font-size="10" text-anchor="start" font-weight="600" style="font-variant-numeric: tabular-nums">2,977</text>
<text x="675.6" y="321.0" fill="#52514e" font-size="10" text-anchor="start" font-weight="600" style="font-variant-numeric: tabular-nums">2,977</text>
<rect x="652" y="341.1" width="18.8" height="35.3" rx="2.5" fill="#2f6f5e" fill-opacity="0.8"/>
<text x="646.0" y="361.3" font-size="10.5" fill="#52514e" text-anchor="end" font-weight="normal" style="font-variant-numeric: tabular-nums">10-49</text>
<text x="676.8" y="361.3" fill="none" stroke="#fcfcfb" stroke-width="3.4" stroke-linejoin="round" font-size="10" text-anchor="start" font-weight="600" style="font-variant-numeric: tabular-nums">3,185</text>
<text x="676.8" y="361.3" fill="#52514e" font-size="10" text-anchor="start" font-weight="600" style="font-variant-numeric: tabular-nums">3,185</text>
<rect x="652" y="381.4" width="4.9" height="35.3" rx="2.5" fill="#2f6f5e" fill-opacity="0.8"/>
<text x="646.0" y="401.6" font-size="10.5" fill="#52514e" text-anchor="end" font-weight="normal" style="font-variant-numeric: tabular-nums">50-199</text>
<text x="662.9" y="401.6" fill="none" stroke="#fcfcfb" stroke-width="3.4" stroke-linejoin="round" font-size="10" text-anchor="start" font-weight="600" style="font-variant-numeric: tabular-nums">830</text>
<text x="662.9" y="401.6" fill="#52514e" font-size="10" text-anchor="start" font-weight="600" style="font-variant-numeric: tabular-nums">830</text>
<rect x="652" y="421.7" width="2.3" height="35.3" rx="2.5" fill="#2f6f5e" fill-opacity="0.8"/>
<text x="646.0" y="441.9" font-size="10.5" fill="#52514e" text-anchor="end" font-weight="normal" style="font-variant-numeric: tabular-nums">200+</text>
<text x="660.3" y="441.9" fill="none" stroke="#fcfcfb" stroke-width="3.4" stroke-linejoin="round" font-size="10" text-anchor="start" font-weight="600" style="font-variant-numeric: tabular-nums">396</text>
<text x="660.3" y="441.9" fill="#52514e" font-size="10" text-anchor="start" font-weight="600" style="font-variant-numeric: tabular-nums">396</text>
<text x="618.0" y="468.0" fill="none" stroke="#fcfcfb" stroke-width="3.4" stroke-linejoin="round" font-size="11.5" text-anchor="start" font-weight="600" style="font-variant-numeric: tabular-nums">70% have one user or none</text>
<text x="618.0" y="468.0" fill="#b4472e" font-size="11.5" text-anchor="start" font-weight="600" style="font-variant-numeric: tabular-nums">70% have one user or none</text>
<line x1="28" y1="498.0" x2="852" y2="498.0" stroke="#e3e2db"/>
<text x="28.0" y="514.0" font-size="10" fill="#8a8880" text-anchor="start" font-weight="normal" style="font-variant-numeric: tabular-nums">Apify store API, captured 53,937 distinct actors 2026-09-24. Median actor has 1 user in 30 days; the largest has 44,354. A mean over</text>
<text x="28.0" y="527.0" font-size="10" fill="#8a8880" text-anchor="start" font-weight="normal" style="font-variant-numeric: tabular-nums">this distribution describes no actor in it, and the store's own `total` is not a usable denominator — see the coverage plate.</text>
</svg>