<svg xmlns="http://www.w3.org/2000/svg" width="880" height="560" viewBox="0 0 880 560" font-family='system-ui, -apple-system, "Segoe UI", sans-serif'><rect width="880" height="560" fill="#fcfcfb"/>
<text x="28.0" y="40.0" font-size="19" fill="#0b0b0b" text-anchor="start" font-weight="600" style="font-variant-numeric: tabular-nums">Half the store has exactly one user a month. The top 1% has 78% of them.</text>
<text x="28.0" y="60.0" font-size="12" fill="#52514e" text-anchor="start" font-weight="normal" style="font-variant-numeric: tabular-nums">Cumulative share of 30-day users against cumulative share of actors, poorest first. 56,074 actors, one capture.</text>
<text x="28.0" y="88.0" font-size="8.5" fill="#8a8880" text-anchor="start" font-weight="700" letter-spacing="0.9" style="font-variant-numeric: tabular-nums">FOR</text>
<text x="28.0" y="103.0" font-size="11.5" fill="#52514e" text-anchor="start" font-weight="normal" style="font-variant-numeric: tabular-nums">Anyone about to average this data, size the</text>
<text x="28.0" y="116.5" font-size="11.5" fill="#52514e" text-anchor="start" font-weight="normal" style="font-variant-numeric: tabular-nums">market, or pick a typical actor</text>
<text x="302.7" y="88.0" font-size="8.5" fill="#8a8880" text-anchor="start" font-weight="700" letter-spacing="0.9" style="font-variant-numeric: tabular-nums">DECIDE</text>
<text x="302.7" y="103.0" font-size="11.5" fill="#52514e" text-anchor="start" font-weight="normal" style="font-variant-numeric: tabular-nums">Whether "an actor" is a unit that means</text>
<text x="302.7" y="116.5" font-size="11.5" fill="#52514e" text-anchor="start" font-weight="normal" style="font-variant-numeric: tabular-nums">anything here</text>
<text x="577.3" y="88.0" font-size="8.5" fill="#8a8880" text-anchor="start" font-weight="700" letter-spacing="0.9" style="font-variant-numeric: tabular-nums">WRONG IF</text>
<text x="577.3" y="103.0" font-size="11.5" fill="#8a8880" text-anchor="start" font-weight="normal" style="font-variant-numeric: tabular-nums">The curve sits near the diagonal, which would</text>
<text x="577.3" y="116.5" font-size="11.5" fill="#8a8880" text-anchor="start" font-weight="normal" style="font-variant-numeric: tabular-nums">make a mean informative</text>
<line x1="28" y1="126.0" x2="852" y2="126.0" stroke="#e3e2db"/>
<line x1="88" y1="464.0" x2="560" y2="464.0" stroke="#f0efe9"/>
<text x="79.0" y="467.5" font-size="10" fill="#8a8880" text-anchor="end" font-weight="normal" style="font-variant-numeric: tabular-nums">0</text>
<text x="88.0" y="481.0" font-size="10" fill="#8a8880" text-anchor="middle" font-weight="normal" style="font-variant-numeric: tabular-nums">0</text>
<line x1="88" y1="389.5" x2="560" y2="389.5" stroke="#f0efe9"/>
<text x="79.0" y="393.0" font-size="10" fill="#8a8880" text-anchor="end" font-weight="normal" style="font-variant-numeric: tabular-nums">25</text>
<text x="206.0" y="481.0" font-size="10" fill="#8a8880" text-anchor="middle" font-weight="normal" style="font-variant-numeric: tabular-nums">25</text>
<line x1="88" y1="315.0" x2="560" y2="315.0" stroke="#f0efe9"/>
<text x="79.0" y="318.5" font-size="10" fill="#8a8880" text-anchor="end" font-weight="normal" style="font-variant-numeric: tabular-nums">50</text>
<text x="324.0" y="481.0" font-size="10" fill="#8a8880" text-anchor="middle" font-weight="normal" style="font-variant-numeric: tabular-nums">50</text>
<line x1="88" y1="240.5" x2="560" y2="240.5" stroke="#f0efe9"/>
<text x="79.0" y="244.0" font-size="10" fill="#8a8880" text-anchor="end" font-weight="normal" style="font-variant-numeric: tabular-nums">75</text>
<text x="442.0" y="481.0" font-size="10" fill="#8a8880" text-anchor="middle" font-weight="normal" style="font-variant-numeric: tabular-nums">75</text>
<line x1="88" y1="166.0" x2="560" y2="166.0" stroke="#f0efe9"/>
<text x="79.0" y="169.5" font-size="10" fill="#8a8880" text-anchor="end" font-weight="normal" style="font-variant-numeric: tabular-nums">100</text>
<text x="560.0" y="481.0" font-size="10" fill="#8a8880" text-anchor="middle" font-weight="normal" style="font-variant-numeric: tabular-nums">100</text>
<text x="79.0" y="152.0" font-size="10" fill="#8a8880" text-anchor="end" font-weight="normal" style="font-variant-numeric: tabular-nums">% of users</text>
<text x="324.0" y="500.0" font-size="10.5" fill="#8a8880" text-anchor="middle" font-weight="normal" style="font-variant-numeric: tabular-nums">% of actors, least-used first</text>
<line x1="88" y1="464" x2="560" y2="166.0" stroke="#aca89a" stroke-width="1.4" stroke-dasharray="5 4"/>
<text x="184.0" y="386.0" fill="none" stroke="#fcfcfb" stroke-width="3.4" stroke-linejoin="round" font-size="10.5" text-anchor="start" font-weight="600" style="font-variant-numeric: tabular-nums">equal shares</text>
<text x="184.0" y="386.0" fill="#8a8880" font-size="10.5" text-anchor="start" font-weight="600" style="font-variant-numeric: tabular-nums">equal shares</text>
<polyline points="90.4,464.0 92.7,464.0 95.1,464.0 97.4,464.0 99.8,464.0 102.1,464.0 104.5,464.0 106.9,464.0 109.2,464.0 111.6,464.0 113.9,464.0 116.3,464.0 118.6,464.0 121.0,464.0 123.4,464.0 125.7,464.0 128.1,464.0 130.4,464.0 132.8,464.0 135.1,464.0 137.5,464.0 139.8,464.0 142.2,464.0 144.6,464.0 146.9,464.0 149.3,464.0 151.6,464.0 154.0,464.0 156.4,464.0 158.7,464.0 161.1,464.0 163.4,464.0 165.8,464.0 168.1,464.0 170.5,464.0 172.8,464.0 175.2,464.0 177.6,464.0 179.9,464.0 182.3,464.0 184.6,463.9 187.0,463.8 189.3,463.7 191.7,463.6 194.1,463.5 196.4,463.4 198.8,463.3 201.1,463.2 203.5,463.1 205.8,463.0 208.2,462.9 210.6,462.8 212.9,462.7 215.3,462.6 217.6,462.5 220.0,462.4 222.3,462.3 224.7,462.2 227.1,462.1 229.4,462.0 231.8,461.9 234.1,461.9 236.5,461.8 238.8,461.7 241.2,461.6 243.6,461.5 245.9,461.4 248.3,461.3 250.6,461.2 253.0,461.1 255.3,461.0 257.7,460.9 260.1,460.8 262.4,460.7 264.8,460.6 267.1,460.5 269.5,460.4 271.8,460.3 274.2,460.2 276.5,460.1 278.9,460.0 281.3,459.9 283.6,459.8 286.0,459.7 288.3,459.6 290.7,459.5 293.1,459.4 295.4,459.3 297.8,459.2 300.1,459.1 302.5,459.0 304.8,458.9 307.2,458.9 309.5,458.8 311.9,458.7 314.3,458.6 316.6,458.5 319.0,458.4 321.3,458.3 323.7,458.2 326.0,458.1 328.4,458.0 330.8,457.9 333.1,457.8 335.5,457.7 337.8,457.6 340.2,457.5 342.5,457.4 344.9,457.3 347.3,457.2 349.6,457.1 352.0,457.0 354.3,456.9 356.7,456.8 359.0,456.7 361.4,456.6 363.8,456.5 366.1,456.4 368.5,456.3 370.8,456.2 373.2,456.1 375.5,456.0 377.9,455.9 380.3,455.8 382.6,455.8 385.0,455.7 387.3,455.6 389.7,455.5 392.0,455.4 394.4,455.3 396.8,455.2 399.1,455.1 401.5,455.0 403.8,454.9 406.2,454.8 408.5,454.7 410.9,454.6 413.3,454.5 415.6,454.4 418.0,454.3 420.3,454.2 422.7,454.1 425.0,454.0 427.4,453.8 429.7,453.6 432.1,453.4 434.5,453.2 436.8,453.0 439.2,452.8 441.5,452.6 443.9,452.4 446.2,452.2 448.6,452.1 451.0,451.9 453.3,451.7 455.7,451.5 458.0,451.3 460.4,451.1 462.7,450.9 465.1,450.7 467.5,450.5 469.8,450.3 472.2,450.0 474.5,449.7 476.9,449.4 479.2,449.1 481.6,448.8 484.0,448.5 486.3,448.3 488.7,447.9 491.0,447.5 493.4,447.1 495.7,446.7 498.1,446.3 500.5,445.8 502.8,445.3 505.2,444.8 507.5,444.3 509.9,443.7 512.2,443.1 514.6,442.4 517.0,441.7 519.3,440.9 521.7,440.1 524.0,439.1 526.4,438.1 528.7,437.0 531.1,435.8 533.5,434.4 535.8,432.8 538.2,431.1 540.5,429.1 542.9,426.7 545.2,424.0 547.6,420.6 550.0,416.3 552.3,410.5 554.7,402.2 557.0,387.5 559.4,339.3 560.0,166.0" fill="none" stroke="#2f6f5e" stroke-width="2.4"/>
<line x1="555.3" y1="166.0" x2="555.3" y2="464" stroke="#b4472e" stroke-width="1.6" stroke-dasharray="3 3"/>
<text x="547.3" y="182.0" fill="none" stroke="#fcfcfb" stroke-width="3.4" stroke-linejoin="round" font-size="11.5" text-anchor="end" font-weight="600" style="font-variant-numeric: tabular-nums">top 1% — 78% of all users</text>
<text x="547.3" y="182.0" fill="#b4472e" font-size="11.5" text-anchor="end" font-weight="600" style="font-variant-numeric: tabular-nums">top 1% — 78% of all users</text>
<text x="618.0" y="164.0" font-size="10.5" fill="#8a8880" text-anchor="start" font-weight="normal" style="font-variant-numeric: tabular-nums">actors by 30-day users</text>
<rect x="652" y="180.0" width="62.7" height="35.3" rx="2.5" fill="#b4472e" fill-opacity="0.85"/>
<text x="646.0" y="200.1" font-size="10.5" fill="#52514e" text-anchor="end" font-weight="normal" style="font-variant-numeric: tabular-nums">0</text>
<text x="720.7" y="200.1" fill="none" stroke="#fcfcfb" stroke-width="3.4" stroke-linejoin="round" font-size="10" text-anchor="start" font-weight="600" style="font-variant-numeric: tabular-nums">11,152</text>
<text x="720.7" y="200.1" fill="#52514e" font-size="10" text-anchor="start" font-weight="600" style="font-variant-numeric: tabular-nums">11,152</text>
<rect x="652" y="220.3" width="162.0" height="35.3" rx="2.5" fill="#b4472e" fill-opacity="0.85"/>
<text x="646.0" y="240.4" font-size="10.5" fill="#52514e" text-anchor="end" font-weight="normal" style="font-variant-numeric: tabular-nums">1</text>
<text x="820.0" y="240.4" fill="none" stroke="#fcfcfb" stroke-width="3.4" stroke-linejoin="round" font-size="10" text-anchor="start" font-weight="600" style="font-variant-numeric: tabular-nums">28,832</text>
<text x="820.0" y="240.4" fill="#52514e" font-size="10" text-anchor="start" font-weight="600" style="font-variant-numeric: tabular-nums">28,832</text>
<rect x="652" y="260.6" width="48.7" height="35.3" rx="2.5" fill="#2f6f5e" fill-opacity="0.8"/>
<text x="646.0" y="280.7" font-size="10.5" fill="#52514e" text-anchor="end" font-weight="normal" style="font-variant-numeric: tabular-nums">2-4</text>
<text x="706.7" y="280.7" fill="none" stroke="#fcfcfb" stroke-width="3.4" stroke-linejoin="round" font-size="10" text-anchor="start" font-weight="600" style="font-variant-numeric: tabular-nums">8,666</text>
<text x="706.7" y="280.7" fill="#52514e" font-size="10" text-anchor="start" font-weight="600" style="font-variant-numeric: tabular-nums">8,666</text>
<rect x="652" y="300.9" width="16.8" height="35.3" rx="2.5" fill="#2f6f5e" fill-opacity="0.8"/>
<text x="646.0" y="321.0" font-size="10.5" fill="#52514e" text-anchor="end" font-weight="normal" style="font-variant-numeric: tabular-nums">5-9</text>
<text x="674.8" y="321.0" fill="none" stroke="#fcfcfb" stroke-width="3.4" stroke-linejoin="round" font-size="10" text-anchor="start" font-weight="600" style="font-variant-numeric: tabular-nums">2,995</text>
<text x="674.8" y="321.0" fill="#52514e" font-size="10" text-anchor="start" font-weight="600" style="font-variant-numeric: tabular-nums">2,995</text>
<rect x="652" y="341.1" width="18.0" height="35.3" rx="2.5" fill="#2f6f5e" fill-opacity="0.8"/>
<text x="646.0" y="361.3" font-size="10.5" fill="#52514e" text-anchor="end" font-weight="normal" style="font-variant-numeric: tabular-nums">10-49</text>
<text x="676.0" y="361.3" fill="none" stroke="#fcfcfb" stroke-width="3.4" stroke-linejoin="round" font-size="10" text-anchor="start" font-weight="600" style="font-variant-numeric: tabular-nums">3,201</text>
<text x="676.0" y="361.3" fill="#52514e" font-size="10" text-anchor="start" font-weight="600" style="font-variant-numeric: tabular-nums">3,201</text>
<rect x="652" y="381.4" width="4.7" height="35.3" rx="2.5" fill="#2f6f5e" fill-opacity="0.8"/>
<text x="646.0" y="401.6" font-size="10.5" fill="#52514e" text-anchor="end" font-weight="normal" style="font-variant-numeric: tabular-nums">50-199</text>
<text x="662.7" y="401.6" fill="none" stroke="#fcfcfb" stroke-width="3.4" stroke-linejoin="round" font-size="10" text-anchor="start" font-weight="600" style="font-variant-numeric: tabular-nums">831</text>
<text x="662.7" y="401.6" fill="#52514e" font-size="10" text-anchor="start" font-weight="600" style="font-variant-numeric: tabular-nums">831</text>
<rect x="652" y="421.7" width="2.2" height="35.3" rx="2.5" fill="#2f6f5e" fill-opacity="0.8"/>
<text x="646.0" y="441.9" font-size="10.5" fill="#52514e" text-anchor="end" font-weight="normal" style="font-variant-numeric: tabular-nums">200+</text>
<text x="660.2" y="441.9" fill="none" stroke="#fcfcfb" stroke-width="3.4" stroke-linejoin="round" font-size="10" text-anchor="start" font-weight="600" style="font-variant-numeric: tabular-nums">397</text>
<text x="660.2" y="441.9" fill="#52514e" font-size="10" text-anchor="start" font-weight="600" style="font-variant-numeric: tabular-nums">397</text>
<text x="618.0" y="468.0" fill="none" stroke="#fcfcfb" stroke-width="3.4" stroke-linejoin="round" font-size="11.5" text-anchor="start" font-weight="600" style="font-variant-numeric: tabular-nums">71% have one user or none</text>
<text x="618.0" y="468.0" fill="#b4472e" font-size="11.5" text-anchor="start" font-weight="600" style="font-variant-numeric: tabular-nums">71% have one user or none</text>
<line x1="28" y1="498.0" x2="852" y2="498.0" stroke="#e3e2db"/>
<text x="28.0" y="514.0" font-size="10" fill="#8a8880" text-anchor="start" font-weight="normal" style="font-variant-numeric: tabular-nums">Apify store API, captured 56,074 distinct actors 2026-09-24. Median actor has 1 user in 30 days; the largest has 44,354. A mean over</text>
<text x="28.0" y="527.0" font-size="10" fill="#8a8880" text-anchor="start" font-weight="normal" style="font-variant-numeric: tabular-nums">this distribution describes no actor in it, and the store's own `total` is not a usable denominator — see the coverage plate.</text>
</svg>