<svg xmlns="http://www.w3.org/2000/svg" width="880" height="560" viewBox="0 0 880 560" font-family='system-ui, -apple-system, "Segoe UI", sans-serif'><rect width="880" height="560" fill="#fcfcfb"/>
<text x="28.0" y="40.0" font-size="19" fill="#0b0b0b" text-anchor="start" font-weight="600" style="font-variant-numeric: tabular-nums">Half the store has exactly one user a month. The top 1% has 78% of them.</text>
<text x="28.0" y="60.0" font-size="12" fill="#52514e" text-anchor="start" font-weight="normal" style="font-variant-numeric: tabular-nums">Cumulative share of 30-day users against cumulative share of actors, poorest first. 56,749 actors, one capture.</text>
<text x="28.0" y="88.0" font-size="8.5" fill="#8a8880" text-anchor="start" font-weight="700" letter-spacing="0.9" style="font-variant-numeric: tabular-nums">FOR</text>
<text x="28.0" y="103.0" font-size="11.5" fill="#52514e" text-anchor="start" font-weight="normal" style="font-variant-numeric: tabular-nums">Anyone about to average this data, size the</text>
<text x="28.0" y="116.5" font-size="11.5" fill="#52514e" text-anchor="start" font-weight="normal" style="font-variant-numeric: tabular-nums">market, or pick a typical actor</text>
<text x="302.7" y="88.0" font-size="8.5" fill="#8a8880" text-anchor="start" font-weight="700" letter-spacing="0.9" style="font-variant-numeric: tabular-nums">DECIDE</text>
<text x="302.7" y="103.0" font-size="11.5" fill="#52514e" text-anchor="start" font-weight="normal" style="font-variant-numeric: tabular-nums">Whether "an actor" is a unit that means</text>
<text x="302.7" y="116.5" font-size="11.5" fill="#52514e" text-anchor="start" font-weight="normal" style="font-variant-numeric: tabular-nums">anything here</text>
<text x="577.3" y="88.0" font-size="8.5" fill="#8a8880" text-anchor="start" font-weight="700" letter-spacing="0.9" style="font-variant-numeric: tabular-nums">WRONG IF</text>
<text x="577.3" y="103.0" font-size="11.5" fill="#8a8880" text-anchor="start" font-weight="normal" style="font-variant-numeric: tabular-nums">The curve sits near the diagonal, which would</text>
<text x="577.3" y="116.5" font-size="11.5" fill="#8a8880" text-anchor="start" font-weight="normal" style="font-variant-numeric: tabular-nums">make a mean informative</text>
<line x1="28" y1="126.0" x2="852" y2="126.0" stroke="#e3e2db"/>
<line x1="88" y1="464.0" x2="560" y2="464.0" stroke="#f0efe9"/>
<text x="79.0" y="467.5" font-size="10" fill="#8a8880" text-anchor="end" font-weight="normal" style="font-variant-numeric: tabular-nums">0</text>
<text x="88.0" y="481.0" font-size="10" fill="#8a8880" text-anchor="middle" font-weight="normal" style="font-variant-numeric: tabular-nums">0</text>
<line x1="88" y1="389.5" x2="560" y2="389.5" stroke="#f0efe9"/>
<text x="79.0" y="393.0" font-size="10" fill="#8a8880" text-anchor="end" font-weight="normal" style="font-variant-numeric: tabular-nums">25</text>
<text x="206.0" y="481.0" font-size="10" fill="#8a8880" text-anchor="middle" font-weight="normal" style="font-variant-numeric: tabular-nums">25</text>
<line x1="88" y1="315.0" x2="560" y2="315.0" stroke="#f0efe9"/>
<text x="79.0" y="318.5" font-size="10" fill="#8a8880" text-anchor="end" font-weight="normal" style="font-variant-numeric: tabular-nums">50</text>
<text x="324.0" y="481.0" font-size="10" fill="#8a8880" text-anchor="middle" font-weight="normal" style="font-variant-numeric: tabular-nums">50</text>
<line x1="88" y1="240.5" x2="560" y2="240.5" stroke="#f0efe9"/>
<text x="79.0" y="244.0" font-size="10" fill="#8a8880" text-anchor="end" font-weight="normal" style="font-variant-numeric: tabular-nums">75</text>
<text x="442.0" y="481.0" font-size="10" fill="#8a8880" text-anchor="middle" font-weight="normal" style="font-variant-numeric: tabular-nums">75</text>
<line x1="88" y1="166.0" x2="560" y2="166.0" stroke="#f0efe9"/>
<text x="79.0" y="169.5" font-size="10" fill="#8a8880" text-anchor="end" font-weight="normal" style="font-variant-numeric: tabular-nums">100</text>
<text x="560.0" y="481.0" font-size="10" fill="#8a8880" text-anchor="middle" font-weight="normal" style="font-variant-numeric: tabular-nums">100</text>
<text x="79.0" y="152.0" font-size="10" fill="#8a8880" text-anchor="end" font-weight="normal" style="font-variant-numeric: tabular-nums">% of users</text>
<text x="324.0" y="500.0" font-size="10.5" fill="#8a8880" text-anchor="middle" font-weight="normal" style="font-variant-numeric: tabular-nums">% of actors, least-used first</text>
<line x1="88" y1="464" x2="560" y2="166.0" stroke="#aca89a" stroke-width="1.4" stroke-dasharray="5 4"/>
<text x="184.0" y="386.0" fill="none" stroke="#fcfcfb" stroke-width="3.4" stroke-linejoin="round" font-size="10.5" text-anchor="start" font-weight="600" style="font-variant-numeric: tabular-nums">equal shares</text>
<text x="184.0" y="386.0" fill="#8a8880" font-size="10.5" text-anchor="start" font-weight="600" style="font-variant-numeric: tabular-nums">equal shares</text>
<polyline points="90.4,464.0 92.7,464.0 95.1,464.0 97.4,464.0 99.8,464.0 102.1,464.0 104.5,464.0 106.8,464.0 109.2,464.0 111.5,464.0 113.9,464.0 116.2,464.0 118.6,464.0 121.0,464.0 123.3,464.0 125.7,464.0 128.0,464.0 130.4,464.0 132.7,464.0 135.1,464.0 137.4,464.0 139.8,464.0 142.1,464.0 144.5,464.0 146.8,464.0 149.2,464.0 151.6,464.0 153.9,464.0 156.3,464.0 158.6,464.0 161.0,464.0 163.3,464.0 165.7,464.0 168.0,464.0 170.4,464.0 172.7,464.0 175.1,464.0 177.4,464.0 179.8,464.0 182.1,464.0 184.5,463.9 186.9,463.8 189.2,463.7 191.6,463.6 193.9,463.5 196.3,463.4 198.6,463.3 201.0,463.2 203.3,463.1 205.7,463.0 208.0,462.9 210.4,462.8 212.7,462.7 215.1,462.6 217.5,462.5 219.8,462.4 222.2,462.3 224.5,462.2 226.9,462.1 229.2,462.0 231.6,461.9 233.9,461.8 236.3,461.7 238.6,461.6 241.0,461.6 243.3,461.5 245.7,461.4 248.1,461.3 250.4,461.2 252.8,461.1 255.1,461.0 257.5,460.9 259.8,460.8 262.2,460.7 264.5,460.6 266.9,460.5 269.2,460.4 271.6,460.3 273.9,460.2 276.3,460.1 278.7,460.0 281.0,459.9 283.4,459.8 285.7,459.7 288.1,459.6 290.4,459.5 292.8,459.4 295.1,459.3 297.5,459.2 299.8,459.1 302.2,459.0 304.5,458.9 306.9,458.8 309.3,458.7 311.6,458.6 314.0,458.5 316.3,458.4 318.7,458.3 321.0,458.2 323.4,458.1 325.7,458.0 328.1,457.9 330.4,457.8 332.8,457.7 335.1,457.6 337.5,457.5 339.9,457.4 342.2,457.3 344.6,457.3 346.9,457.2 349.3,457.1 351.6,457.0 354.0,456.9 356.3,456.8 358.7,456.7 361.0,456.6 363.4,456.5 365.7,456.4 368.1,456.3 370.5,456.2 372.8,456.1 375.2,456.0 377.5,455.9 379.9,455.8 382.2,455.7 384.6,455.6 386.9,455.5 389.3,455.4 391.6,455.3 394.0,455.2 396.3,455.1 398.7,455.0 401.1,454.9 403.4,454.8 405.8,454.7 408.1,454.6 410.5,454.5 412.8,454.4 415.2,454.3 417.5,454.2 419.9,454.1 422.2,454.0 424.6,453.9 426.9,453.8 429.3,453.6 431.7,453.4 434.0,453.2 436.4,453.0 438.7,452.8 441.1,452.6 443.4,452.4 445.8,452.2 448.1,452.0 450.5,451.8 452.8,451.6 455.2,451.4 457.5,451.2 459.9,451.0 462.3,450.8 464.6,450.6 467.0,450.4 469.3,450.3 471.7,450.0 474.0,449.7 476.4,449.4 478.7,449.1 481.1,448.8 483.4,448.5 485.8,448.2 488.1,447.9 490.5,447.5 492.9,447.1 495.2,446.7 497.6,446.3 499.9,445.8 502.3,445.4 504.6,444.9 507.0,444.3 509.3,443.7 511.7,443.2 514.0,442.5 516.4,441.8 518.7,441.0 521.1,440.2 523.5,439.3 525.8,438.3 528.2,437.2 530.5,436.0 532.9,434.7 535.2,433.2 537.6,431.5 539.9,429.5 542.3,427.3 544.6,424.7 547.0,421.5 549.3,417.4 551.7,412.1 554.1,404.7 556.4,392.6 558.8,362.7 560.0,166.0" fill="none" stroke="#2f6f5e" stroke-width="2.4"/>
<line x1="555.3" y1="166.0" x2="555.3" y2="464" stroke="#b4472e" stroke-width="1.6" stroke-dasharray="3 3"/>
<text x="547.3" y="182.0" fill="none" stroke="#fcfcfb" stroke-width="3.4" stroke-linejoin="round" font-size="11.5" text-anchor="end" font-weight="600" style="font-variant-numeric: tabular-nums">top 1% — 78% of all users</text>
<text x="547.3" y="182.0" fill="#b4472e" font-size="11.5" text-anchor="end" font-weight="600" style="font-variant-numeric: tabular-nums">top 1% — 78% of all users</text>
<text x="618.0" y="164.0" font-size="10.5" fill="#8a8880" text-anchor="start" font-weight="normal" style="font-variant-numeric: tabular-nums">actors by 30-day users</text>
<rect x="652" y="180.0" width="62.5" height="35.3" rx="2.5" fill="#b4472e" fill-opacity="0.85"/>
<text x="646.0" y="200.1" font-size="10.5" fill="#52514e" text-anchor="end" font-weight="normal" style="font-variant-numeric: tabular-nums">0</text>
<text x="720.5" y="200.1" fill="none" stroke="#fcfcfb" stroke-width="3.4" stroke-linejoin="round" font-size="10" text-anchor="start" font-weight="600" style="font-variant-numeric: tabular-nums">11,299</text>
<text x="720.5" y="200.1" fill="#52514e" font-size="10" text-anchor="start" font-weight="600" style="font-variant-numeric: tabular-nums">11,299</text>
<rect x="652" y="220.3" width="162.0" height="35.3" rx="2.5" fill="#b4472e" fill-opacity="0.85"/>
<text x="646.0" y="240.4" font-size="10.5" fill="#52514e" text-anchor="end" font-weight="normal" style="font-variant-numeric: tabular-nums">1</text>
<text x="820.0" y="240.4" fill="none" stroke="#fcfcfb" stroke-width="3.4" stroke-linejoin="round" font-size="10" text-anchor="start" font-weight="600" style="font-variant-numeric: tabular-nums">29,293</text>
<text x="820.0" y="240.4" fill="#52514e" font-size="10" text-anchor="start" font-weight="600" style="font-variant-numeric: tabular-nums">29,293</text>
<rect x="652" y="260.6" width="48.1" height="35.3" rx="2.5" fill="#2f6f5e" fill-opacity="0.8"/>
<text x="646.0" y="280.7" font-size="10.5" fill="#52514e" text-anchor="end" font-weight="normal" style="font-variant-numeric: tabular-nums">2-4</text>
<text x="706.1" y="280.7" fill="none" stroke="#fcfcfb" stroke-width="3.4" stroke-linejoin="round" font-size="10" text-anchor="start" font-weight="600" style="font-variant-numeric: tabular-nums">8,699</text>
<text x="706.1" y="280.7" fill="#52514e" font-size="10" text-anchor="start" font-weight="600" style="font-variant-numeric: tabular-nums">8,699</text>
<rect x="652" y="300.9" width="16.7" height="35.3" rx="2.5" fill="#2f6f5e" fill-opacity="0.8"/>
<text x="646.0" y="321.0" font-size="10.5" fill="#52514e" text-anchor="end" font-weight="normal" style="font-variant-numeric: tabular-nums">5-9</text>
<text x="674.7" y="321.0" fill="none" stroke="#fcfcfb" stroke-width="3.4" stroke-linejoin="round" font-size="10" text-anchor="start" font-weight="600" style="font-variant-numeric: tabular-nums">3,013</text>
<text x="674.7" y="321.0" fill="#52514e" font-size="10" text-anchor="start" font-weight="600" style="font-variant-numeric: tabular-nums">3,013</text>
<rect x="652" y="341.1" width="17.8" height="35.3" rx="2.5" fill="#2f6f5e" fill-opacity="0.8"/>
<text x="646.0" y="361.3" font-size="10.5" fill="#52514e" text-anchor="end" font-weight="normal" style="font-variant-numeric: tabular-nums">10-49</text>
<text x="675.8" y="361.3" fill="none" stroke="#fcfcfb" stroke-width="3.4" stroke-linejoin="round" font-size="10" text-anchor="start" font-weight="600" style="font-variant-numeric: tabular-nums">3,215</text>
<text x="675.8" y="361.3" fill="#52514e" font-size="10" text-anchor="start" font-weight="600" style="font-variant-numeric: tabular-nums">3,215</text>
<rect x="652" y="381.4" width="4.6" height="35.3" rx="2.5" fill="#2f6f5e" fill-opacity="0.8"/>
<text x="646.0" y="401.6" font-size="10.5" fill="#52514e" text-anchor="end" font-weight="normal" style="font-variant-numeric: tabular-nums">50-199</text>
<text x="662.6" y="401.6" fill="none" stroke="#fcfcfb" stroke-width="3.4" stroke-linejoin="round" font-size="10" text-anchor="start" font-weight="600" style="font-variant-numeric: tabular-nums">833</text>
<text x="662.6" y="401.6" fill="#52514e" font-size="10" text-anchor="start" font-weight="600" style="font-variant-numeric: tabular-nums">833</text>
<rect x="652" y="421.7" width="2.2" height="35.3" rx="2.5" fill="#2f6f5e" fill-opacity="0.8"/>
<text x="646.0" y="441.9" font-size="10.5" fill="#52514e" text-anchor="end" font-weight="normal" style="font-variant-numeric: tabular-nums">200+</text>
<text x="660.2" y="441.9" fill="none" stroke="#fcfcfb" stroke-width="3.4" stroke-linejoin="round" font-size="10" text-anchor="start" font-weight="600" style="font-variant-numeric: tabular-nums">397</text>
<text x="660.2" y="441.9" fill="#52514e" font-size="10" text-anchor="start" font-weight="600" style="font-variant-numeric: tabular-nums">397</text>
<text x="618.0" y="468.0" fill="none" stroke="#fcfcfb" stroke-width="3.4" stroke-linejoin="round" font-size="11.5" text-anchor="start" font-weight="600" style="font-variant-numeric: tabular-nums">72% have one user or none</text>
<text x="618.0" y="468.0" fill="#b4472e" font-size="11.5" text-anchor="start" font-weight="600" style="font-variant-numeric: tabular-nums">72% have one user or none</text>
<line x1="28" y1="498.0" x2="852" y2="498.0" stroke="#e3e2db"/>
<text x="28.0" y="514.0" font-size="10" fill="#8a8880" text-anchor="start" font-weight="normal" style="font-variant-numeric: tabular-nums">Apify store API, captured 56,749 distinct actors 2026-09-24. Median actor has 1 user in 30 days; the largest has 44,354. A mean over</text>
<text x="28.0" y="527.0" font-size="10" fill="#8a8880" text-anchor="start" font-weight="normal" style="font-variant-numeric: tabular-nums">this distribution describes no actor in it, and the store's own `total` is not a usable denominator — see the coverage plate.</text>
</svg>