<svg xmlns="http://www.w3.org/2000/svg" width="880" height="560" viewBox="0 0 880 560" font-family='system-ui, -apple-system, "Segoe UI", sans-serif'><rect width="880" height="560" fill="#fcfcfb"/>
<text x="28.0" y="40.0" font-size="19" fill="#0b0b0b" text-anchor="start" font-weight="600" style="font-variant-numeric: tabular-nums">Half the store has exactly one user a month. The top 1% has 78% of them.</text>
<text x="28.0" y="60.0" font-size="12" fill="#52514e" text-anchor="start" font-weight="normal" style="font-variant-numeric: tabular-nums">Cumulative share of 30-day users against cumulative share of actors, poorest first. 51,603 actors, one capture.</text>
<text x="28.0" y="88.0" font-size="8.5" fill="#8a8880" text-anchor="start" font-weight="700" letter-spacing="0.9" style="font-variant-numeric: tabular-nums">FOR</text>
<text x="28.0" y="103.0" font-size="11.5" fill="#52514e" text-anchor="start" font-weight="normal" style="font-variant-numeric: tabular-nums">Anyone about to average this data, size the</text>
<text x="28.0" y="116.5" font-size="11.5" fill="#52514e" text-anchor="start" font-weight="normal" style="font-variant-numeric: tabular-nums">market, or pick a typical actor</text>
<text x="302.7" y="88.0" font-size="8.5" fill="#8a8880" text-anchor="start" font-weight="700" letter-spacing="0.9" style="font-variant-numeric: tabular-nums">DECIDE</text>
<text x="302.7" y="103.0" font-size="11.5" fill="#52514e" text-anchor="start" font-weight="normal" style="font-variant-numeric: tabular-nums">Whether "an actor" is a unit that means</text>
<text x="302.7" y="116.5" font-size="11.5" fill="#52514e" text-anchor="start" font-weight="normal" style="font-variant-numeric: tabular-nums">anything here</text>
<text x="577.3" y="88.0" font-size="8.5" fill="#8a8880" text-anchor="start" font-weight="700" letter-spacing="0.9" style="font-variant-numeric: tabular-nums">WRONG IF</text>
<text x="577.3" y="103.0" font-size="11.5" fill="#8a8880" text-anchor="start" font-weight="normal" style="font-variant-numeric: tabular-nums">The curve sits near the diagonal, which would</text>
<text x="577.3" y="116.5" font-size="11.5" fill="#8a8880" text-anchor="start" font-weight="normal" style="font-variant-numeric: tabular-nums">make a mean informative</text>
<line x1="28" y1="126.0" x2="852" y2="126.0" stroke="#e3e2db"/>
<line x1="88" y1="464.0" x2="560" y2="464.0" stroke="#f0efe9"/>
<text x="79.0" y="467.5" font-size="10" fill="#8a8880" text-anchor="end" font-weight="normal" style="font-variant-numeric: tabular-nums">0</text>
<text x="88.0" y="481.0" font-size="10" fill="#8a8880" text-anchor="middle" font-weight="normal" style="font-variant-numeric: tabular-nums">0</text>
<line x1="88" y1="389.5" x2="560" y2="389.5" stroke="#f0efe9"/>
<text x="79.0" y="393.0" font-size="10" fill="#8a8880" text-anchor="end" font-weight="normal" style="font-variant-numeric: tabular-nums">25</text>
<text x="206.0" y="481.0" font-size="10" fill="#8a8880" text-anchor="middle" font-weight="normal" style="font-variant-numeric: tabular-nums">25</text>
<line x1="88" y1="315.0" x2="560" y2="315.0" stroke="#f0efe9"/>
<text x="79.0" y="318.5" font-size="10" fill="#8a8880" text-anchor="end" font-weight="normal" style="font-variant-numeric: tabular-nums">50</text>
<text x="324.0" y="481.0" font-size="10" fill="#8a8880" text-anchor="middle" font-weight="normal" style="font-variant-numeric: tabular-nums">50</text>
<line x1="88" y1="240.5" x2="560" y2="240.5" stroke="#f0efe9"/>
<text x="79.0" y="244.0" font-size="10" fill="#8a8880" text-anchor="end" font-weight="normal" style="font-variant-numeric: tabular-nums">75</text>
<text x="442.0" y="481.0" font-size="10" fill="#8a8880" text-anchor="middle" font-weight="normal" style="font-variant-numeric: tabular-nums">75</text>
<line x1="88" y1="166.0" x2="560" y2="166.0" stroke="#f0efe9"/>
<text x="79.0" y="169.5" font-size="10" fill="#8a8880" text-anchor="end" font-weight="normal" style="font-variant-numeric: tabular-nums">100</text>
<text x="560.0" y="481.0" font-size="10" fill="#8a8880" text-anchor="middle" font-weight="normal" style="font-variant-numeric: tabular-nums">100</text>
<text x="79.0" y="152.0" font-size="10" fill="#8a8880" text-anchor="end" font-weight="normal" style="font-variant-numeric: tabular-nums">% of users</text>
<text x="324.0" y="500.0" font-size="10.5" fill="#8a8880" text-anchor="middle" font-weight="normal" style="font-variant-numeric: tabular-nums">% of actors, least-used first</text>
<line x1="88" y1="464" x2="560" y2="166.0" stroke="#aca89a" stroke-width="1.4" stroke-dasharray="5 4"/>
<text x="184.0" y="386.0" fill="none" stroke="#fcfcfb" stroke-width="3.4" stroke-linejoin="round" font-size="10.5" text-anchor="start" font-weight="600" style="font-variant-numeric: tabular-nums">equal shares</text>
<text x="184.0" y="386.0" fill="#8a8880" font-size="10.5" text-anchor="start" font-weight="600" style="font-variant-numeric: tabular-nums">equal shares</text>
<polyline points="90.4,464.0 92.7,464.0 95.1,464.0 97.4,464.0 99.8,464.0 102.2,464.0 104.5,464.0 106.9,464.0 109.2,464.0 111.6,464.0 114.0,464.0 116.3,464.0 118.7,464.0 121.0,464.0 123.4,464.0 125.8,464.0 128.1,464.0 130.5,464.0 132.8,464.0 135.2,464.0 137.6,464.0 139.9,464.0 142.3,464.0 144.6,464.0 147.0,464.0 149.4,464.0 151.7,464.0 154.1,464.0 156.4,464.0 158.8,464.0 161.2,464.0 163.5,464.0 165.9,464.0 168.2,464.0 170.6,464.0 173.0,464.0 175.3,464.0 177.7,464.0 180.0,464.0 182.4,463.9 184.8,463.8 187.1,463.7 189.5,463.6 191.8,463.5 194.2,463.4 196.6,463.3 198.9,463.2 201.3,463.2 203.6,463.1 206.0,463.0 208.4,462.9 210.7,462.8 213.1,462.7 215.4,462.6 217.8,462.5 220.2,462.4 222.5,462.3 224.9,462.3 227.2,462.2 229.6,462.1 232.0,462.0 234.3,461.9 236.7,461.8 239.0,461.7 241.4,461.6 243.8,461.5 246.1,461.4 248.5,461.4 250.8,461.3 253.2,461.2 255.6,461.1 257.9,461.0 260.3,460.9 262.6,460.8 265.0,460.7 267.4,460.6 269.7,460.5 272.1,460.5 274.4,460.4 276.8,460.3 279.2,460.2 281.5,460.1 283.9,460.0 286.2,459.9 288.6,459.8 291.0,459.7 293.3,459.7 295.7,459.6 298.0,459.5 300.4,459.4 302.7,459.3 305.1,459.2 307.5,459.1 309.8,459.0 312.2,458.9 314.5,458.8 316.9,458.8 319.3,458.7 321.6,458.6 324.0,458.5 326.3,458.4 328.7,458.3 331.1,458.2 333.4,458.1 335.8,458.0 338.1,457.9 340.5,457.9 342.9,457.8 345.2,457.7 347.6,457.6 349.9,457.5 352.3,457.4 354.7,457.3 357.0,457.2 359.4,457.1 361.7,457.0 364.1,457.0 366.5,456.9 368.8,456.8 371.2,456.7 373.5,456.6 375.9,456.5 378.3,456.4 380.6,456.3 383.0,456.2 385.3,456.2 387.7,456.1 390.1,456.0 392.4,455.9 394.8,455.8 397.1,455.7 399.5,455.6 401.9,455.5 404.2,455.4 406.6,455.3 408.9,455.3 411.3,455.2 413.7,455.1 416.0,455.0 418.4,454.8 420.7,454.6 423.1,454.4 425.5,454.3 427.8,454.1 430.2,453.9 432.5,453.7 434.9,453.5 437.3,453.4 439.6,453.2 442.0,453.0 444.3,452.8 446.7,452.6 449.1,452.5 451.4,452.3 453.8,452.1 456.1,451.9 458.5,451.7 460.9,451.6 463.2,451.4 465.6,451.1 467.9,450.8 470.3,450.6 472.7,450.3 475.0,450.0 477.4,449.8 479.7,449.5 482.1,449.2 484.5,448.8 486.8,448.5 489.2,448.1 491.5,447.7 493.9,447.3 496.3,446.9 498.6,446.4 501.0,446.0 503.3,445.5 505.7,444.9 508.1,444.4 510.4,443.7 512.8,443.1 515.1,442.4 517.5,441.6 519.9,440.8 522.2,439.9 524.6,439.0 526.9,437.9 529.3,436.7 531.7,435.4 534.0,434.0 536.4,432.3 538.7,430.5 541.1,428.4 543.5,425.9 545.8,422.9 548.2,419.3 550.5,414.5 552.9,408.2 555.3,398.7 557.6,380.4 560.0,205.4 560.0,166.0" fill="none" stroke="#2f6f5e" stroke-width="2.4"/>
<line x1="555.3" y1="166.0" x2="555.3" y2="464" stroke="#b4472e" stroke-width="1.6" stroke-dasharray="3 3"/>
<text x="547.3" y="182.0" fill="none" stroke="#fcfcfb" stroke-width="3.4" stroke-linejoin="round" font-size="11.5" text-anchor="end" font-weight="600" style="font-variant-numeric: tabular-nums">top 1% — 78% of all users</text>
<text x="547.3" y="182.0" fill="#b4472e" font-size="11.5" text-anchor="end" font-weight="600" style="font-variant-numeric: tabular-nums">top 1% — 78% of all users</text>
<text x="618.0" y="164.0" font-size="10.5" fill="#8a8880" text-anchor="start" font-weight="normal" style="font-variant-numeric: tabular-nums">actors by 30-day users</text>
<rect x="652" y="180.0" width="62.2" height="35.3" rx="2.5" fill="#b4472e" fill-opacity="0.85"/>
<text x="646.0" y="200.1" font-size="10.5" fill="#52514e" text-anchor="end" font-weight="normal" style="font-variant-numeric: tabular-nums">0</text>
<text x="720.2" y="200.1" fill="none" stroke="#fcfcfb" stroke-width="3.4" stroke-linejoin="round" font-size="10" text-anchor="start" font-weight="600" style="font-variant-numeric: tabular-nums">9,949</text>
<text x="720.2" y="200.1" fill="#52514e" font-size="10" text-anchor="start" font-weight="600" style="font-variant-numeric: tabular-nums">9,949</text>
<rect x="652" y="220.3" width="162.0" height="35.3" rx="2.5" fill="#b4472e" fill-opacity="0.85"/>
<text x="646.0" y="240.4" font-size="10.5" fill="#52514e" text-anchor="end" font-weight="normal" style="font-variant-numeric: tabular-nums">1</text>
<text x="820.0" y="240.4" fill="none" stroke="#fcfcfb" stroke-width="3.4" stroke-linejoin="round" font-size="10" text-anchor="start" font-weight="600" style="font-variant-numeric: tabular-nums">25,910</text>
<text x="820.0" y="240.4" fill="#52514e" font-size="10" text-anchor="start" font-weight="600" style="font-variant-numeric: tabular-nums">25,910</text>
<rect x="652" y="260.6" width="52.5" height="35.3" rx="2.5" fill="#2f6f5e" fill-opacity="0.8"/>
<text x="646.0" y="280.7" font-size="10.5" fill="#52514e" text-anchor="end" font-weight="normal" style="font-variant-numeric: tabular-nums">2-4</text>
<text x="710.5" y="280.7" fill="none" stroke="#fcfcfb" stroke-width="3.4" stroke-linejoin="round" font-size="10" text-anchor="start" font-weight="600" style="font-variant-numeric: tabular-nums">8,395</text>
<text x="710.5" y="280.7" fill="#52514e" font-size="10" text-anchor="start" font-weight="600" style="font-variant-numeric: tabular-nums">8,395</text>
<rect x="652" y="300.9" width="18.5" height="35.3" rx="2.5" fill="#2f6f5e" fill-opacity="0.8"/>
<text x="646.0" y="321.0" font-size="10.5" fill="#52514e" text-anchor="end" font-weight="normal" style="font-variant-numeric: tabular-nums">5-9</text>
<text x="676.5" y="321.0" fill="none" stroke="#fcfcfb" stroke-width="3.4" stroke-linejoin="round" font-size="10" text-anchor="start" font-weight="600" style="font-variant-numeric: tabular-nums">2,959</text>
<text x="676.5" y="321.0" fill="#52514e" font-size="10" text-anchor="start" font-weight="600" style="font-variant-numeric: tabular-nums">2,959</text>
<rect x="652" y="341.1" width="19.8" height="35.3" rx="2.5" fill="#2f6f5e" fill-opacity="0.8"/>
<text x="646.0" y="361.3" font-size="10.5" fill="#52514e" text-anchor="end" font-weight="normal" style="font-variant-numeric: tabular-nums">10-49</text>
<text x="677.8" y="361.3" fill="none" stroke="#fcfcfb" stroke-width="3.4" stroke-linejoin="round" font-size="10" text-anchor="start" font-weight="600" style="font-variant-numeric: tabular-nums">3,168</text>
<text x="677.8" y="361.3" fill="#52514e" font-size="10" text-anchor="start" font-weight="600" style="font-variant-numeric: tabular-nums">3,168</text>
<rect x="652" y="381.4" width="5.2" height="35.3" rx="2.5" fill="#2f6f5e" fill-opacity="0.8"/>
<text x="646.0" y="401.6" font-size="10.5" fill="#52514e" text-anchor="end" font-weight="normal" style="font-variant-numeric: tabular-nums">50-199</text>
<text x="663.2" y="401.6" fill="none" stroke="#fcfcfb" stroke-width="3.4" stroke-linejoin="round" font-size="10" text-anchor="start" font-weight="600" style="font-variant-numeric: tabular-nums">827</text>
<text x="663.2" y="401.6" fill="#52514e" font-size="10" text-anchor="start" font-weight="600" style="font-variant-numeric: tabular-nums">827</text>
<rect x="652" y="421.7" width="2.5" height="35.3" rx="2.5" fill="#2f6f5e" fill-opacity="0.8"/>
<text x="646.0" y="441.9" font-size="10.5" fill="#52514e" text-anchor="end" font-weight="normal" style="font-variant-numeric: tabular-nums">200+</text>
<text x="660.5" y="441.9" fill="none" stroke="#fcfcfb" stroke-width="3.4" stroke-linejoin="round" font-size="10" text-anchor="start" font-weight="600" style="font-variant-numeric: tabular-nums">395</text>
<text x="660.5" y="441.9" fill="#52514e" font-size="10" text-anchor="start" font-weight="600" style="font-variant-numeric: tabular-nums">395</text>
<text x="618.0" y="468.0" fill="none" stroke="#fcfcfb" stroke-width="3.4" stroke-linejoin="round" font-size="11.5" text-anchor="start" font-weight="600" style="font-variant-numeric: tabular-nums">69% have one user or none</text>
<text x="618.0" y="468.0" fill="#b4472e" font-size="11.5" text-anchor="start" font-weight="600" style="font-variant-numeric: tabular-nums">69% have one user or none</text>
<line x1="28" y1="498.0" x2="852" y2="498.0" stroke="#e3e2db"/>
<text x="28.0" y="514.0" font-size="10" fill="#8a8880" text-anchor="start" font-weight="normal" style="font-variant-numeric: tabular-nums">Apify store API, captured 51,603 distinct actors 2026-09-24. Median actor has 1 user in 30 days; the largest has 44,354. A mean over</text>
<text x="28.0" y="527.0" font-size="10" fill="#8a8880" text-anchor="start" font-weight="normal" style="font-variant-numeric: tabular-nums">this distribution describes no actor in it, and the store's own `total` is not a usable denominator — see the coverage plate.</text>
</svg>